<svg xmlns="http://www.w3.org/2000/svg" version="1.1" xmlns:xlink="http://www.w3.org/1999/xlink" xmlns:svgjs="http://svgjs.dev/svgjs" width="100%" height="100%" viewBox="0 0 1000 600"><rect width="1000" height="600" x="0" y="0" fill="#aa96da"/><g><rect width="333.3333333333333" height="333.3333333333333" rx="13.333333333333334" ry="13.333333333333334" y="336.2363270606498" fill="#c5fad5" transform="matrix(0.39807124633036167,0,0,0.39807124633036167,-8.771165460790991,99.80877087430255)" x="350.62005615234375"/><path d="M454.46935195647353 440.23692603376503L454.46935195647353 440.23692603376503Q454.9990307752631 443.3393305438186 455.27648158510533 444.4995793849768Q455.55393239494754 445.68505102702983 455.55393239494754 447.67765229771464L455.55393239494754 447.67765229771464Q455.55393239494754 453.6806789106638 452.90553830099935 458.8513530940864Q450.28236700794594 464.022027277509 445.74226284689195 466.21641095535176L445.74226284689195 466.21641095535176Q442.11017951804877 461.2979647808766 436.83861413104717 457.7667726556124Q431.5670487440456 454.23558053034816 425.311794122149 451.9655284498212Q419.0565395002524 449.6954763692942 412.32205166135566 448.58567312992545Q405.61278662335366 447.50109269145145 399.25664079787805 447.50109269145145L399.25664079787805 447.50109269145145Q392.9004949724025 447.50109269145145 387.3514787755587 448.5100047272412Q381.8276853796097 449.4936939621362 377.53980922750316 451.2340672238736Q373.2771558762914 452.9492176847162 370.83054418950115 455.4967205750854Q368.38393250271093 458.0442234654546 368.38393250271093 461.2979647808766L368.38393250271093 461.2979647808766Q368.9136113215006 465.30839012314095 373.2771558762914 469.39448386808954Q377.64070043108217 473.4805776130381 383.9968462565577 477.3901117517235Q390.3529920820333 481.27442308951413 398.0711691558251 485.1082888255153Q405.78934622961685 488.9169317606217 413.23007249356647 492.3724554832017L413.23007249356647 492.3724554832017Q422.48684042193764 496.7107772370977 429.2213282608344 500.44375176951985Q435.93059329883636 504.17672630194204 440.29413785362715 508.6159392594171Q444.65768240841794 513.0551522168921 446.82684328536595 518.7050596173149Q449.02122696320873 524.3297442168428 449.02122696320873 532.3253721004768L449.02122696320873 532.3253721004768Q449.02122696320873 541.582140028848 445.91882245315514 549.6534363151661Q442.8416407439963 557.7499554023791 436.9395053346262 563.7277592144335Q431.037369925256 569.7307858273825 422.6886228290956 573.0854183463837Q414.3146529320404 576.4400508653846 403.9733045651953 576.4400508653846L403.9733045651953 576.4400508653846Q393.8085158046133 576.4400508653846 382.0042449858729 573.3628691562258Q370.19997416713255 570.2604646461723 359.9342942029716 564.9132308564865Q349.6686142388106 559.5659970668007 342.85845799722966 552.5540584180617Q336.04830175564865 545.5673425702175 336.04830175564865 537.7734970937415L336.04830175564865 537.7734970937415Q336.04830175564865 534.1414137648983 338.1417942299124 528.4915063644756Q340.23528670417625 522.8668217649476 345.683411697441 516.6872355457352L345.683411697441 516.6872355457352Q346.21309051623064 522.135360539 351.5855471068112 529.6013096038444Q356.932780896497 537.042035867794 367.6524712767634 543.3981816932695L367.6524712767634 543.3981816932695Q377.64070043108217 549.1994258990608 388.2594996077695 551.8478199930089Q398.8782987844569 554.4709912860624 408.16028951372283 554.4709912860624L408.16028951372283 554.4709912860624Q418.3250782743048 554.4709912860624 424.68122409978037 551.9234883956931Q431.037369925256 549.375985505324 434.66945325409915 545.8447933800597Q438.3015365829424 542.3136012547956 439.7392362339428 538.6815179259523Q441.20215868583796 535.0494345971092 441.3787182921012 532.8550509192664L441.3787182921012 532.8550509192664Q441.20215868583796 529.2229675904232 438.0240857731002 525.8683350714223Q434.8460128603624 522.5137025524213 429.49877907067656 519.3356296396835Q424.126322480096 516.1575567269456 417.03871542867284 512.8785926106289Q409.9763311781444 509.62485129520684 402.33382250703687 506.34588717889005L402.33382250703687 506.34588717889005Q390.9078937017177 501.2508813981517 382.6348150082415 496.81166844067667Q374.3617363147654 492.3724554832017 369.01450252507954 487.7314601185687Q363.66726873539375 483.09046475393575 361.1954342477088 478.0206817740921Q358.7488225609186 472.92567599335376 358.7488225609186 466.39297056161496L358.7488225609186 466.39297056161496Q358.7488225609186 456.22818180103303 364.92840878013095 447.147973478925Q371.10799499934336 438.067765156817 382.7357062118205 433.35110138949983L382.7357062118205 433.35110138949983Q388.5369504176117 430.80359849913066 395.17054705292946 429.71901806065665Q401.8041436882473 428.6092148212879 408.16028951372283 428.6092148212879L408.16028951372283 428.6092148212879Q420.14111993872643 428.6092148212879 431.5670487440456 431.88817893760466Q443.0182003502596 435.16714305392145 454.46935195647353 440.23692603376503ZM493.13590572811665 452.5960984721898L493.13590572811665 452.5960984721898Q485.8717390704303 452.5960984721898 481.9622049317449 448.5100047272412Q478.0778935939543 444.4239109822926 478.0778935939543 438.59744397560667L478.0778935939543 438.59744397560667Q478.0778935939543 437.15974432460627 478.53190401005963 435.16714305392145Q478.98591442616504 433.14931898234187 479.6921528512179 431.71161933134147L479.6921528512179 431.71161933134147Q482.0630961353238 432.7961997698155 486.7040914999568 433.2502101859209Q491.31986406369504 433.7042206020263 497.49945028290745 433.7042206020263L497.49945028290745 433.7042206020263Q506.75621821127856 433.7042206020263 518.4848206273348 432.8970909733944Q530.1882002424961 432.06473854386786 540.9078906227625 431.15671771165705Q551.6275810030288 430.2486968794463 559.799768492926 429.44156725081444Q567.9719559828231 428.6092148212879 570.3176764660344 428.6092148212879L570.3176764660344 428.6092148212879Q577.0521643049311 428.6092148212879 580.028454810511 433.6033293984473Q583.0299681169856 438.59744397560667 584.4928905688807 446.9714138726618L584.4928905688807 446.9714138726618Q579.7762268015636 446.59307185924064 575.1352314369306 446.31562104939843Q570.4942360722977 446.063393040451 567.2404947568756 446.063393040451L567.2404947568756 446.063393040451Q561.4140277501897 446.063393040451 555.5118923408195 446.41651225297744Q549.6097569314493 446.76963146550383 543.6319531193949 447.50109269145145L543.6319531193949 447.50109269145145Q541.0844502290257 452.772658078453 538.0072685198669 459.9359335325604Q534.9048640098133 467.12443178756257 531.9033507033388 474.9182772640386Q528.9270601977589 482.73734554140935 526.2029977011265 490.4555226152011Q523.4789352044941 498.1736996889929 521.4611111329145 504.35328590820524L521.4611111329145 504.35328590820524Q517.475908591545 516.3341163332088 514.4743952850704 526.4989050937909Q511.47288197859575 536.6636938543728 509.2028298980688 545.4916741675333Q506.9327778175418 554.2944316797991 505.31851856027816 562.290059563433Q503.6790365021198 570.2604646461723 502.39267365648783 577.9029733172799L502.39267365648783 577.9029733172799Q490.2352836252211 576.0869316528583 482.0630961353238 562.6431787759595L482.0630961353238 562.6431787759595Q483.526018587219 557.0184941764315 485.5942882605881 550.3848975411138Q487.68778073485186 543.7513009057959 490.51273443506324 535.3016626060567Q493.31246533437985 526.877247107212 497.146331070381 516.1575567269456Q500.95497400548743 505.43786634667924 505.8481973790678 491.81755386351733L505.8481973790678 491.81755386351733Q507.6642390434894 486.7225480827789 509.6568403141742 481.19875468682994Q511.6746643857538 475.64973848998613 513.5663744528596 470.2016134967214Q515.4833073208601 464.7534885034566 517.0218981754396 459.68370552361296Q518.560489030019 454.58869974287455 519.645069468493 450.401714794347L519.645069468493 450.401714794347Q512.0277835982802 451.3097356265578 505.2176273566992 451.9655284498212Q498.4074711151182 452.5960984721898 493.13590572811665 452.5960984721898ZM606.2853905419399 505.08474713415285L606.2853905419399 505.08474713415285Q617.5347597409959 488.36203014093735 628.5319009311045 474.28770724167Q639.5038193203183 460.2133843424026 649.492048474637 450.0485955818206Q659.4802776289558 439.88380682123864 667.8542475260109 434.25912222171064Q676.2029946221713 428.6092148212879 682.3825808413837 428.6092148212879L682.3825808413837 428.6092148212879Q684.7283013245949 428.6092148212879 687.5532550248063 430.4252564857095Q690.3529859241229 432.24129815013106 692.8248204118079 435.16714305392145Q695.2714320985981 438.067765156817 696.9109141567565 441.42239767581805Q698.5251734140201 444.777030194819 698.5251734140201 447.8794347048726L698.5251734140201 447.8794347048726Q687.2758042149642 451.5115180337158 676.4804454320135 457.41365344308593Q665.6598638481681 463.31578885245614 655.7725258974284 471.03396592624796Q645.8599651457938 478.7521430000397 636.8806480272648 488.1854705346741Q627.9013309087359 497.6187980693085 620.6371642510495 508.33848844957487L620.6371642510495 508.33848844957487Q623.5377863539451 515.7792147135244 627.8004397051568 524.2288530132638Q632.0630930563686 532.6784913130032 637.158098837107 540.5732279930583Q642.2278818169507 548.4679646731131 648.0543488236366 555.2024525120099Q653.8555930294278 561.9117175500119 659.858619642377 565.9221428922763L659.858619642377 565.9221428922763Q658.9505988101662 567.9147441629611 656.7562151323234 569.7307858273825Q654.5870542553754 571.5468274918042 652.0395513650062 573.0854183463837Q649.492048474637 574.624009200963 646.6923175753204 575.5320300331739Q643.867363875109 576.4400508653846 641.5216433918978 576.4400508653846L641.5216433918978 576.4400508653846Q636.7797568236858 576.4400508653846 632.7945542823162 572.0008379079097Q628.8093517409467 567.53640214954 624.7232579959981 558.557085031011Q620.6371642510495 549.5777679124819 616.1727284926797 536.2096834382673Q611.7335155352047 522.8668217649476 606.2853905419399 505.08474713415285ZM578.8682059693529 577.3480716975955L578.8682059693529 577.3480716975955Q571.9571585241928 575.7085896394372 567.4170543631388 571.6224958944886Q562.8769502020848 567.53640214954 559.0683072669784 561.3820387312223L559.0683072669784 561.3820387312223Q560.7077893251369 557.9265150086424 562.9778414056638 552.3018304091142Q565.2478934861908 546.6519230086916 568.5016348016129 538.4040671161101Q571.7805989179296 530.130988422634 576.3207030789836 518.6041684137358Q580.8608072400376 507.07734840483766 586.838611052092 491.6409942572541L586.838611052092 491.6409942572541Q590.6724767880931 481.82932470919854 593.1190884748834 475.1200596711965Q595.5657001616736 468.3855718322998 597.2808506225161 461.9537576041399Q599.0212238842536 455.4967205750854 600.6607059424119 447.67765229771464Q602.2749651996755 439.88380682123864 604.4693488775183 427.90297639623503L604.4693488775183 427.90297639623503Q612.0866347477311 429.3406760472355 618.3671121705224 434.6122414342371Q624.6223667924191 439.88380682123864 629.1624709534731 447.3245330851882L629.1624709534731 447.3245330851882Q627.1698696827882 449.87203597555737 624.5214755888401 455.04271015898Q621.8983042957867 460.2133843424026 618.6193401794699 467.47755100008897Q615.3655988640479 474.7417176577754 611.3551735217835 483.6453663736201Q607.3699709804139 492.5490150894649 603.0064264256232 502.5372442437837L603.0064264256232 502.5372442437837Q593.1947568775676 524.3297442168428 587.5700722780396 542.3892696574798Q581.9453876785117 560.4740178990115 578.8682059693529 577.3480716975955Z " fill="#aa96da" transform="matrix(0.39807124633036167,0,0,0.39807124633036167,-8.771165460790991,99.80877087430255)"/><path d="M869.8274925233599 452.73553826344715L869.8274925233599 452.73553826344715Q870.2861412764295 455.42190953142614 870.5263858613707 456.4265687048167Q870.7666304463119 457.45306829502005 870.7666304463119 459.1784612232342L870.7666304463119 459.1784612232342Q870.7666304463119 464.37648042468953 868.4733866809639 468.85376587132123Q866.2019833324289 473.33105131795287 862.2707083061182 475.23116758066976L862.2707083061182 475.23116758066976Q859.1256882850696 470.9722863021664 854.5610411711865 467.91462794836923Q849.9963940573034 464.856969594572 844.5799706877198 462.8913320814166Q839.1635473181361 460.9256945682612 833.3321560291085 459.96471622849634Q827.5226051568937 459.02557830554434 822.0188201200586 459.02557830554434L822.0188201200586 459.02557830554434Q816.5150350832237 459.02557830554434 811.7101433843993 459.89919497805784Q806.927092102388 460.7509712337585 803.2142212442056 462.2579599938443Q799.5231908028361 463.74310833711723 797.4046703719908 465.94899043521383Q795.2861499411456 468.1548725333104 795.2861499411456 470.9722863021664L795.2861499411456 470.9722863021664Q795.7447986942152 474.4449125754076 799.5231908028361 477.98306009908725Q803.301582911457 481.52120762276695 808.8053679482921 484.90647222875674Q814.3091529851271 488.2698964179337 820.9923205298553 491.58963977348503Q827.6754880745837 494.8875427122235 834.1184110343706 497.8796798155822L834.1184110343706 497.8796798155822Q842.133844004682 501.6362315073902 847.9652352937096 504.8686131956902Q853.7747861659243 508.10099488399015 857.5531782745452 511.94490824304955Q861.3315703831661 515.788821602109 863.2098462290702 520.6810749681845Q865.109962491787 525.5514879174473 865.109962491787 532.4749000471168L865.109962491787 532.4749000471168Q865.109962491787 540.4903330174282 862.423591223808 547.4792663975361Q859.7590603726419 554.4900401944569 854.6484028384378 559.6662189790994Q849.5377453042339 564.8642381805547 842.3085673391847 567.769013616662Q835.0575489573226 570.6737890527695 826.1029780640592 570.6737890527695L826.1029780640592 570.6737890527695Q817.3012900884858 570.6737890527695 807.0799750200779 568.0092582016032Q796.8586599516699 565.3228869336243 787.9696103088451 560.6927185693028Q779.0805606660202 556.0625502049812 773.1836481265541 549.9909143310124Q767.2867355870881 543.9411188738565 767.2867355870881 537.1924300786897L767.2867355870881 537.1924300786897Q767.2867355870881 534.0474100576411 769.0994901825535 529.1551566915655Q770.9122447780189 524.2847437423027 775.6297748095919 518.9338416231575L775.6297748095919 518.9338416231575Q776.0884235626615 523.6513716547304 780.7404323437959 530.1161350313303Q785.3706007081174 536.5590579911174 794.6527778535733 542.0628430279523L794.6527778535733 542.0628430279523Q803.301582911457 547.0861388949049 812.4963983896615 549.379382660253Q821.691213867866 551.650786008788 829.7284872549903 551.650786008788L829.7284872549903 551.650786008788Q838.5301752305638 551.650786008788 844.0339602673988 549.4449039106914Q849.5377453042339 547.2390218125948 852.6827653252825 544.1813634587977Q855.8277853463311 541.1237051050005 857.0726891046628 537.9786850839519Q858.3394332798074 534.8336650629033 858.4923161974973 532.9335488001864L858.4923161974973 532.9335488001864Q858.3394332798074 529.7885287791378 855.5875407613898 526.8837533430303Q852.8356482429724 523.978977906923 848.2054798786507 521.2270853885054Q843.5534710975164 518.475192870088 837.416313973109 515.635938684419Q831.3009972655145 512.8185249155631 824.6833509712249 509.97927072989415L824.6833509712249 509.97927072989415Q814.7896421550095 505.56750653370096 807.6259854403988 501.72359317464156Q800.4623287257881 497.8796798155822 795.8321603614665 493.8610431220201Q791.201991997145 489.842406428458 789.061631149487 485.4524826490777Q786.9431107186417 481.0407184528845 786.9431107186417 475.3840504983596L786.9431107186417 475.3840504983596Q786.9431107186417 466.5823625227861 792.2940128377869 458.71981247016464Q797.6449149569321 450.85726241754315 807.7133471076502 446.77310447354256L807.7133471076502 446.77310447354256Q812.7366429746028 444.56722237544597 818.480672596379 443.62808445249397Q824.2247022181552 442.6671061127291 829.7284872549903 442.6671061127291L829.7284872549903 442.6671061127291Q840.1026852410881 442.6671061127291 849.9963940573034 445.50636029839796Q859.9119432903317 448.34561448406686 869.8274925233599 452.73553826344715ZM876.4232984008369 531.0552729542824L876.4232984008369 531.0552729542824Q876.4232984008369 522.0788616442061 880.1143288422063 513.6703011712636Q883.8053592835759 505.26174069832126 889.8769951575447 498.7314560712829Q895.9267906147007 492.20117144424444 903.7019790000708 488.2043751674952Q911.4990078022538 484.1857384739331 919.8202066079449 484.1857384739331L919.8202066079449 484.1857384739331Q928.010362912759 484.1857384739331 932.4002866921393 488.2698964179337Q936.8120508883325 492.3758947787472 936.8120508883325 499.9108385791761L936.8120508883325 499.9108385791761Q936.8120508883325 503.5363477701071 935.785551298129 506.9216123760969Q934.7590517079257 510.2850365652739 933.1210204469629 512.9714078332529Q931.4611487691872 515.635938684419 929.2552666710907 517.2958103621947Q927.0493845729941 518.9338416231575 924.8653428917103 518.9338416231575L924.8653428917103 518.9338416231575Q922.9652266289935 518.9338416231575 920.9995891158381 517.7544591152644Q919.0339516026827 516.5750766073711 917.789047844351 514.6968007614671L917.789047844351 514.6968007614671Q928.3161287481386 505.1088577806314 928.3161287481386 497.2463077280099L928.3161287481386 497.2463077280099Q928.3161287481386 492.6816606141269 924.6906195572076 492.6816606141269L924.6906195572076 492.6816606141269Q921.5455995361591 492.6816606141269 916.8280695045861 495.6737977174856Q912.1105394730132 498.66593482084437 907.7206156936329 503.5363477701071L907.7206156936329 503.5363477701071Q900.9500864816533 511.071291570536 897.4119389579736 520.2879474655534Q893.8737914342939 529.482762943758 893.8737914342939 539.551195094476L893.8737914342939 539.551195094476Q893.8737914342939 552.2841580963603 899.5304593888188 554.7958060298366L899.5304593888188 554.7958060298366Q901.8892244046053 554.4900401944569 905.0342444256539 553.3761789370022Q908.1792644467025 552.2841580963603 911.8047736376335 550.4714035008949Q915.4302828285645 548.6586489054293 919.2741961876239 546.2998838896428Q923.1181095466833 543.9411188738565 926.7436187376144 541.2765880226902L926.7436187376144 541.2765880226902Q927.3769908251866 541.7352367757599 927.8356395782562 542.6962151155246Q928.3161287481386 543.6353530384768 928.3161287481386 544.4216080437388L928.3161287481386 544.4216080437388Q925.6515978969725 547.7195109824772 922.1789716237313 550.8645310035258Q918.728185767303 554.0095510245744 914.9497936586821 556.6085606253022Q911.1714015500612 559.2075702260298 907.6332540263816 560.9984844046825Q904.0951065027019 562.811239000148 901.4305756515357 563.2917281700304L901.4305756515357 563.2917281700304Q896.2325564500803 562.811239000148 891.6679093361973 560.0593464817305Q887.1251026391271 557.3074539633129 883.7398380331374 552.9175301839326Q880.3545734271476 548.5057659877394 878.3889359139922 542.8490980332145Q876.4232984008369 537.1924300786897 876.4232984008369 531.0552729542824ZM941.3766980022154 556.0625502049812L941.3766980022154 556.0625502049812Q941.3766980022154 550.5587651681462 942.4687188428574 543.0893426181558Q943.5607396834993 535.6199200681654 945.7011005311573 527.1239979279716Q947.8196209620024 518.6280757877778 950.7243963981099 509.34589864232186Q953.6291718342172 500.0637214968659 957.2546810251482 490.8033847682229L957.2546810251482 490.8033847682229Q960.3997010461968 482.46034554571895 964.5712206574489 473.96442340552517Q968.720899851888 465.4685012653314 973.6131532179635 457.3001853773302Q978.4835661672263 449.13186948932895 983.7471066191201 441.7279681897771Q989.010647071014 434.345907307038 994.3615491901592 428.2087501826307L994.3615491901592 428.2087501826307Q996.8731971236355 428.2087501826307 999.7779725597428 428.842122270203Q1002.704588412663 429.4754943577753 1005.4564809310806 430.4801535311658Q1008.208373449498 431.50665312136914 1010.4797767980332 432.9262802142036Q1012.7511801465683 434.345907307038 1014.1708072394027 435.7655343998725L1014.1708072394027 435.7655343998725Q1002.3769821604704 447.8651253141844 992.9419220973247 460.2049608134376Q983.5068620341789 472.5447963126907 978.0030769973439 483.39948346867095L978.0030769973439 483.39948346867095Q975.0109398939851 489.38375767538844 972.5866536277601 494.55993646003094Q970.1405269447224 499.7579556614862 968.1093681811285 504.8686131956902Q966.0563690007217 509.97927072989415 964.3964973229461 515.089928264098Q962.7584660619833 520.2005857983021 961.3388389691489 525.857253752827L961.3388389691489 525.857253752827Q991.5222950044903 487.3307584949817 1006.1553742690913 487.3307584949817L1006.1553742690913 487.3307584949817Q1010.2395322130919 487.3307584949817 1014.9570622446648 490.01712976296074Q1019.6745922762377 492.6816606141269 1023.3001014671687 497.2463077280099L1023.3001014671687 497.2463077280099Q1018.429688517906 502.5972098471551 1013.2316693164507 510.132153647584Q1008.0336501149953 517.6889378648258 1003.7092475860535 525.311243332506Q999.3848450571118 532.9335488001864 996.6329525386942 539.4638334272247Q993.8810600202767 545.9941180542631 993.8810600202767 549.1391380753117L993.8810600202767 549.1391380753117Q993.8810600202767 550.711648085836 994.3615491901592 551.257658506157Q994.8420383600416 551.8036689264779 996.4145483705659 551.8036689264779L996.4145483705659 551.8036689264779Q998.7733133863522 551.8036689264779 1000.171100062374 551.1702968389056Q1001.5907271552084 550.5587651681462 1001.9183334074008 550.5587651681462L1001.9183334074008 550.5587651681462Q1002.704588412663 551.8036689264779 1002.857471330353 552.2841580963603Q1003.0103542480427 552.7428068494299 1003.0103542480427 553.0704131016225L1003.0103542480427 553.0704131016225Q1003.0103542480427 553.7037851891948 1001.1320784021387 554.883167697088Q999.2319621394219 556.0625502049812 996.6329525386942 557.2419327128745Q994.0557833547794 558.4213152207676 991.5222950044903 559.3604531437197Q989.010647071014 560.2995910666716 987.7657433126822 560.2995910666716L987.7657433126822 560.2995910666716Q986.1932333021579 560.2995910666716 984.6207232916337 559.4259743941582Q983.0482132811093 558.5741981384575 981.8688307732161 557.154571045623Q980.6894482653229 555.7349439527886 979.9687145104992 554.0095510245744Q979.2698211724884 552.2841580963603 979.2698211724884 550.3840418336434L979.2698211724884 550.3840418336434Q979.2698211724884 548.025276817857 980.6020865980715 543.3951084535355Q981.9343520236546 538.764940089214 984.293117039441 532.5404212975552Q986.6518820552275 526.3377429227094 989.949784993966 518.9338416231575Q993.2695283495173 511.55178074041845 997.0260800413253 503.8421136054868L997.0260800413253 503.8421136054868Q997.0260800413253 503.2087415179145 996.4145483705659 503.2087415179145L996.4145483705659 503.2087415179145Q995.9340592006835 503.2087415179145 993.9684216875281 504.4754856930591Q992.0027841743727 505.7422298682037 990.2773912461586 506.9871336265354L990.2773912461586 506.9871336265354Q984.6207232916337 511.24601490503875 978.8766936698574 517.4486932798845Q973.1326640480811 523.6513716547304 967.7162406784975 531.0552729542824Q962.2779768921009 538.4373338370214 957.4949256100895 546.693011392274Q952.6900339112652 554.9486889475265 949.2392480548369 563.2917281700304L949.2392480548369 563.2917281700304Q948.7587588849545 564.3837490106723 947.8196209620024 565.3228869336243Q946.8804830390504 566.2838652733892 946.2471109514782 566.2838652733892L946.2471109514782 566.2838652733892Q945.7666217815957 566.2838652733892 944.9148455258951 565.1700040159344Q944.0412288533815 564.0779831752925 943.3423355153708 562.418111497517Q942.6216017605472 560.7800802365541 941.9882296729749 559.0328468915271Q941.3766980022154 557.3074539633129 941.3766980022154 556.0625502049812ZM1041.3839665881983 564.2308660929824L1041.3839665881983 564.2308660929824Q1032.407555278122 563.2917281700304 1027.0784935757897 556.3683160403609Q1021.7275914566445 549.4449039106914 1021.7275914566445 538.764940089214L1021.7275914566445 538.764940089214Q1021.7275914566445 532.4749000471168 1023.6058673025485 525.7043708351371Q1025.5059835652655 518.9338416231575 1028.9567694216935 512.5782803306219Q1032.407555278122 506.20087862127326 1037.125085309695 500.54421066674837Q1041.842615341268 494.8875427122235 1047.3464003781028 490.8033847682229L1047.3464003781028 490.8033847682229Q1055.9952054359865 484.33862139162295 1063.5519896532282 484.33862139162295L1063.5519896532282 484.33862139162295Q1068.5752855201808 487.024992659602 1073.4675388862565 495.5209147997958L1073.4675388862565 495.5209147997958Q1074.2537938915184 495.5209147997958 1074.865325562278 495.4335531325444Q1075.4986976498503 495.34619146529303 1076.2849526551126 495.34619146529303L1076.2849526551126 495.34619146529303Q1084.6279918776163 495.34619146529303 1084.6279918776163 510.132153647584L1084.6279918776163 510.132153647584Q1084.6279918776163 520.0477028806122 1081.3956101893164 528.936752523437Q1078.1850689178293 537.8039617494491 1072.441039296053 545.0549801313111Q1066.6970096742768 552.2841580963603 1058.7470979544041 557.2419327128745Q1050.8190266513438 562.1778669125757 1041.3839665881983 564.2308660929824ZM1049.3993995585097 514.6968007614671L1049.3993995585097 514.6968007614671Q1046.7348687073434 518.3223099523981 1044.3761036915569 522.5593508140885Q1042.0173386757706 526.796391675779 1040.2701053307433 531.1207942047208Q1038.5447124025295 535.4451967336627 1037.6055744795772 539.4638334272247Q1036.6664365566253 543.4824701207868 1036.6664365566253 546.6274901418354L1036.6664365566253 546.6274901418354Q1036.6664365566253 550.3840418336434 1037.9113403149572 553.8566681068846Q1039.1780844901016 557.3074539633129 1040.750594500626 557.7879431331953L1040.750594500626 557.7879431331953Q1047.826889547985 556.2154331226711 1053.7238020874515 551.8910305937293Q1059.6207146269176 547.5666280647874 1063.9451171558594 541.1237051050005Q1068.2695196848013 534.6589417284006 1070.7156463678389 526.4906258403993Q1073.1399326340638 518.3223099523981 1073.1399326340638 509.04013280694215L1073.1399326340638 509.04013280694215Q1073.1399326340638 504.9559748629415 1072.6812838809942 502.5972098471551Q1072.200794711112 500.23844483136867 1071.10877387047 498.4912114863416L1071.10877387047 498.4912114863416Q1064.1853617408005 500.54421066674837 1058.7470979544041 505.1088577806314Q1053.3306745848204 509.67350489451445 1049.3993995585097 514.6968007614671ZM1110.7272899689572 564.2308660929824L1110.7272899689572 564.2308660929824Q1101.7727190756937 563.2917281700304 1096.4218169565486 556.3683160403609Q1091.0709148374035 549.4449039106914 1091.0709148374035 538.764940089214L1091.0709148374035 538.764940089214Q1091.0709148374035 532.4749000471168 1092.9491906833073 525.7043708351371Q1094.8493069460242 518.9338416231575 1098.3000928024526 512.5782803306219Q1101.7727190756937 506.20087862127326 1106.4902491072667 500.54421066674837Q1111.2077791388397 494.8875427122235 1116.7115641756745 490.8033847682229L1116.7115641756745 490.8033847682229Q1125.3603692335582 484.33862139162295 1132.8953130339871 484.33862139162295L1132.8953130339871 484.33862139162295Q1137.9404493177526 487.024992659602 1142.8108622670154 495.5209147997958L1142.8108622670154 495.5209147997958Q1143.5971172722775 495.5209147997958 1144.2304893598498 495.4335531325444Q1144.8420210306092 495.34619146529303 1145.6282760358713 495.34619146529303L1145.6282760358713 495.34619146529303Q1153.9713152583754 495.34619146529303 1153.9713152583754 510.132153647584L1153.9713152583754 510.132153647584Q1153.9713152583754 520.0477028806122 1150.7389335700755 528.936752523437Q1147.5283922985882 537.8039617494491 1141.7843626768122 545.0549801313111Q1136.0403330550357 552.2841580963603 1128.112261751976 557.2419327128745Q1120.162350032103 562.1778669125757 1110.7272899689572 564.2308660929824ZM1118.7427229392683 514.6968007614671L1118.7427229392683 514.6968007614671Q1116.0781920881022 518.3223099523981 1113.7194270723157 522.5593508140885Q1111.3606620565295 526.796391675779 1109.6352691283155 531.1207942047208Q1107.8880357832882 535.4451967336627 1106.9488978603363 539.4638334272247Q1106.0097599373844 543.4824701207868 1106.0097599373844 546.6274901418354L1106.0097599373844 546.6274901418354Q1106.0097599373844 550.3840418336434 1107.276504112529 553.8566681068846Q1108.5214078708605 557.3074539633129 1110.0939178813846 557.7879431331953L1110.0939178813846 557.7879431331953Q1117.1702129287441 556.2154331226711 1123.0671254682102 551.8910305937293Q1128.9640380076764 547.5666280647874 1133.288440536618 541.1237051050005Q1137.61284306556 534.6589417284006 1140.058969748598 526.4906258403993Q1142.483256014823 518.3223099523981 1142.483256014823 509.04013280694215L1142.483256014823 509.04013280694215Q1142.483256014823 504.9559748629415 1142.0246072617533 502.5972098471551Q1141.5441180918708 500.23844483136867 1140.452097251229 498.4912114863416L1140.452097251229 498.4912114863416Q1133.5286851215596 500.54421066674837 1128.112261751976 505.1088577806314Q1122.6739979655795 509.67350489451445 1118.7427229392683 514.6968007614671ZM1161.3533761411145 548.6586489054293L1161.3533761411145 548.6586489054293Q1161.3533761411145 541.7352367757599 1164.6731194966655 529.2425183588168Q1167.971022435404 516.7497999418738 1173.9334562253089 500.0637214968659L1173.9334562253089 500.0637214968659Q1183.6961225406471 473.50577465245556 1192.2575659312793 455.81503703405724Q1200.8408497387245 438.12429941565887 1209.009165626726 428.2087501826307L1209.009165626726 428.2087501826307Q1210.8874414726297 428.5145160180104 1213.6393339910474 429.781260193155Q1216.391226509465 431.0480043682996 1219.0775977774438 432.53315271157254Q1221.7421286286099 434.01830105484544 1223.8606490594552 435.59081106536973Q1226.0010099071133 437.1633210758941 1226.612541577873 438.12429941565887L1226.612541577873 438.12429941565887Q1214.3600677458708 452.5826553457573 1205.0778906004148 469.2468933739523Q1195.7957134549592 485.91113140214725 1188.0860463200274 507.46762279641786L1188.0860463200274 507.46762279641786Q1181.4902404425507 526.0101366705169 1178.0394545861222 540.8834605200592Q1174.5668283128812 555.7349439527886 1174.5668283128812 565.6504931858169L1174.5668283128812 565.6504931858169Q1174.5668283128812 568.315024036983 1174.5668283128812 568.9483961245553Q1174.5668283128812 569.5817682121276 1174.7197112305707 570.2151402996999L1174.7197112305707 570.2151402996999Q1172.535669549287 569.8875340475072 1170.9631595387627 569.1012790422451Q1169.3906495282386 568.315024036983 1168.9101603583563 567.2230031963411L1168.9101603583563 567.2230031963411Q1168.6043945229765 566.436748191079 1167.184767430142 564.9297594309933Q1165.7651403373075 563.4446110877202 1164.6731194966655 562.6583560824581L1164.6731194966655 562.6583560824581Q1163.2534924038314 561.7192181595061 1162.314354480879 557.700581465944Q1161.3533761411145 553.7037851891948 1161.3533761411145 548.6586489054293ZM1267.825408103697 463.43734250173753L1267.825408103697 463.43734250173753Q1261.5353680616 463.43734250173753 1258.15010345561 459.89919497805784Q1254.76483884962 456.3610474543782 1254.76483884962 451.3159111706127L1254.76483884962 451.3159111706127Q1254.76483884962 450.071007412281 1255.1579663522512 448.34561448406686Q1255.5510938548823 446.5983811390398 1256.1844659424546 445.3534773807081L1256.1844659424546 445.3534773807081Q1258.2374651228615 446.2926153036601 1262.2342613996107 446.6857428062912Q1266.252898093173 447.07887030892226 1271.603800212318 447.07887030892226L1271.603800212318 447.07887030892226Q1279.6192331826292 447.07887030892226 1289.753186583786 446.37997697091146Q1299.9089804017553 445.6592432160878 1309.1693171303982 444.87298821082567Q1318.4514942758542 444.0867332055635 1325.5277893232137 443.3878398675527Q1332.604084370573 442.6671061127291 1334.6570835509797 442.6671061127291L1334.6570835509797 442.6671061127291Q1340.4666344231946 442.6671061127291 1343.0656440239222 446.9915086416709Q1345.6646536246499 451.3159111706127 1346.9095573829813 458.56692955247473L1346.9095573829813 458.56692955247473Q1342.8253994389809 458.2393233002822 1338.8286031622315 457.999078715341Q1334.8099664686697 457.78067454721264 1331.9707122830005 457.78067454721264L1331.9707122830005 457.78067454721264Q1326.9474164160479 457.78067454721264 1321.8367588818442 458.08644038259234Q1316.72610134764 458.39220621797205 1311.5280821461847 459.02557830554434L1311.5280821461847 459.02557830554434Q1309.344040464901 463.5902254194274 1306.6576691969221 469.79290379427323Q1303.993138345756 476.0174225859319 1301.3941287450284 482.76611138109865Q1298.7951191443005 489.5366405930783 1296.4363541285143 496.2198081378066Q1294.0775891127278 502.9029756825348 1292.3521961845136 508.25387780168L1292.3521961845136 508.25387780168Q1288.9014103280851 518.6280757877778 1286.3024007273575 527.4297637633513Q1283.7033911266299 536.2314517389248 1281.7377536134745 543.8755976234179Q1279.7721161003192 551.4979030910981 1278.3524890074848 558.4213152207676Q1276.9328619146504 565.3228869336243 1275.8408410740085 571.9405332279141L1275.8408410740085 571.9405332279141Q1265.3137601702206 570.3680232173897 1258.2374651228615 558.7270810561474L1258.2374651228615 558.7270810561474Q1259.482368881193 553.8566681068846 1261.2951234766588 548.1126384851084Q1263.107878072124 542.3686088633322 1265.532164338349 535.0520692310315Q1267.9782910213871 527.7573700155439 1271.2761939601255 518.475192870088Q1274.574096898864 509.193015724632 1278.8329781773673 497.3991906456998L1278.8329781773673 497.3991906456998Q1280.4054881878915 492.98742644950664 1282.1308811161057 488.2043751674952Q1283.8562740443197 483.39948346867095 1285.5161457220954 478.68195343709806Q1287.1541769830583 473.96442340552517 1288.508282825454 469.57449962614487Q1289.840548251037 465.1627354299517 1290.7796861739894 461.53722623902064L1290.7796861739894 461.53722623902064Q1284.1838802965121 462.3234812442828 1278.286967757046 462.8913320814166Q1272.39005521758 463.43734250173753 1267.825408103697 463.43734250173753ZM1367.0464216844175 493.6207985370789L1367.0464216844175 493.6207985370789Q1366.4130495968452 503.3834648524172 1363.5956358279893 510.37239823252526Q1360.7563816423203 517.3613316126332 1355.4928411904266 522.6467124813399Q1350.2293007385329 527.9102529332338 1342.672516521291 532.1472937949242Q1335.1157323040493 536.4061750734274 1325.069140570144 540.3374500997382L1325.069140570144 540.3374500997382Q1325.069140570144 541.2765880226902 1324.9817789028925 542.3030876128936Q1324.8944172356414 543.3077467862842 1324.8944172356414 544.4216080437388L1324.8944172356414 544.4216080437388Q1324.8944172356414 546.4527668073328 1325.2220234878341 548.6586489054293Q1325.5277893232137 550.8645310035258 1326.3140443284758 552.7428068494299Q1327.100299333738 554.6429231121467 1328.5199264265725 555.82230562004Q1329.9395535194067 557.0016881279332 1332.1454356175032 557.0016881279332L1332.1454356175032 557.0016881279332Q1336.3824764791939 557.0016881279332 1340.4666344231946 555.1015718652163Q1344.550792367195 553.2232960193123 1348.2636632253775 550.4714035008949Q1351.954693666747 547.7195109824772 1355.165234938234 544.4871292941773Q1358.397616626534 541.2765880226902 1360.9092645600103 538.5902167547113L1360.9092645600103 538.5902167547113Q1362.4817745705345 540.0098438475457 1363.5956358279893 541.2765880226902L1363.5956358279893 541.2765880226902Q1356.51934078063 550.711648085836 1348.0889398908748 556.9143264606819Q1339.6803794179323 563.1388452523406 1332.1454356175032 564.8642381805547L1332.1454356175032 564.8642381805547Q1321.2907484615232 563.5974940054101 1315.2409530043672 556.9143264606819Q1309.1693171303982 550.2311589159536 1309.1693171303982 540.7960988528077L1309.1693171303982 540.7960988528077Q1309.1693171303982 534.3531758930208 1310.982071725864 527.6700083482925Q1312.7948263213293 520.9868408035643 1316.0272080096292 514.7841624287184Q1319.2377492811165 508.5596436370597 1323.5621518100584 503.0558586002247Q1327.886554339 497.5520735633896 1332.8443289555144 493.46791561938903Q1337.8021035720283 489.38375767538844 1343.0656440239222 487.024992659602Q1348.329184475816 484.66622764381555 1353.5272036772712 484.66622764381555L1353.5272036772712 484.66622764381555Q1360.7563816423203 485.60536556676755 1367.0464216844175 493.6207985370789ZM1356.1917345284376 498.8188177385342L1356.1917345284376 498.8188177385342Q1351.954693666747 499.4521898261065 1347.390046552864 502.2696035949625Q1342.8253994389809 505.1088577806314 1338.8286031622315 509.8263878122043Q1334.8099664686697 514.5439178437772 1331.512063529931 520.8339578858744Q1328.2141605911927 527.1239979279716 1326.3140443284758 534.3531758930208L1326.3140443284758 534.3531758930208Q1338.8941244126702 528.0631358509236 1347.237163635174 518.868320372719Q1355.558362440865 509.67350489451445 1356.1917345284376 498.8188177385342ZM1375.214737572419 531.0552729542824L1375.214737572419 531.0552729542824Q1375.214737572419 522.0788616442061 1378.9276084306011 513.6703011712636Q1382.6186388719707 505.26174069832126 1388.6684343291267 498.7314560712829Q1394.7182297862828 492.20117144424444 1402.5152585884657 488.2043751674952Q1410.290446973836 484.1857384739331 1418.6334861963396 484.1857384739331L1418.6334861963396 484.1857384739331Q1426.801802084341 484.1857384739331 1431.213566280534 488.2698964179337Q1435.6034900599143 492.3758947787472 1435.6034900599143 499.9108385791761L1435.6034900599143 499.9108385791761Q1435.6034900599143 503.5363477701071 1434.5769904697113 506.9216123760969Q1433.5723312963205 510.2850365652739 1431.9124596185447 512.9714078332529Q1430.2525879407694 515.635938684419 1428.0685462594856 517.2958103621947Q1425.8626641613887 518.9338416231575 1423.6567820632922 518.9338416231575L1423.6567820632922 518.9338416231575Q1421.7785062173884 518.9338416231575 1419.812868704233 517.7544591152644Q1417.8472311910773 516.5750766073711 1416.5804870159332 514.6968007614671L1416.5804870159332 514.6968007614671Q1427.1075679197206 505.1088577806314 1427.1075679197206 497.2463077280099L1427.1075679197206 497.2463077280099Q1427.1075679197206 492.6816606141269 1423.5038991456026 492.6816606141269L1423.5038991456026 492.6816606141269Q1420.3588791245538 492.6816606141269 1415.6413490929808 495.6737977174856Q1410.9238190614083 498.66593482084437 1406.5120548652148 503.5363477701071L1406.5120548652148 503.5363477701071Q1399.763366070048 511.071291570536 1396.2252185463685 520.2879474655534Q1392.6870710226885 529.482762943758 1392.6870710226885 539.551195094476L1392.6870710226885 539.551195094476Q1392.6870710226885 552.2841580963603 1398.3437389772134 554.7958060298366L1398.3437389772134 554.7958060298366Q1400.7025039930004 554.4900401944569 1403.8475240140488 553.3761789370022Q1406.9925440350976 552.2841580963603 1410.5962128092156 550.4714035008949Q1414.2217220001467 548.6586489054293 1418.0656353592058 546.2998838896428Q1421.931389135078 543.9411188738565 1425.5350579091964 541.2765880226902L1425.5350579091964 541.2765880226902Q1426.1684299967687 541.7352367757599 1426.648919166651 542.6962151155246Q1427.1075679197206 543.6353530384768 1427.1075679197206 544.4216080437388L1427.1075679197206 544.4216080437388Q1424.4430370685545 547.7195109824772 1420.9922512121261 550.8645310035258Q1417.519624938885 554.0095510245744 1413.741232830264 556.6085606253022Q1409.984681138456 559.2075702260298 1406.4465336147764 560.9984844046825Q1402.9083860910969 562.811239000148 1400.2220148231177 563.2917281700304L1400.2220148231177 563.2917281700304Q1395.045836038475 562.811239000148 1390.481188924592 560.0593464817305Q1385.916541810709 557.3074539633129 1382.5312772047196 552.9175301839326Q1379.1460125987296 548.5057659877394 1377.1803750855743 542.8490980332145Q1375.214737572419 537.1924300786897 1375.214737572419 531.0552729542824ZM1440.1681371737973 556.0625502049812L1440.1681371737973 556.0625502049812Q1440.1681371737973 550.5587651681462 1441.2601580144392 543.0893426181558Q1442.3740192718942 535.6199200681654 1444.4925397027391 527.1239979279716Q1446.6110601335845 518.6280757877778 1449.5158355696917 509.34589864232186Q1452.442451422612 500.0637214968659 1456.04612019673 490.8033847682229L1456.04612019673 490.8033847682229Q1459.1911402177789 482.46034554571895 1463.3626598290307 473.96442340552517Q1467.5341794402825 465.4685012653314 1472.4045923895455 457.3001853773302Q1477.2750053388081 449.13186948932895 1482.5385457907023 441.7279681897771Q1487.8239266594087 434.345907307038 1493.1529883617413 428.2087501826307L1493.1529883617413 428.2087501826307Q1495.68647671203 428.2087501826307 1498.5912521481378 428.842122270203Q1501.496027584245 429.4754943577753 1504.2479201026626 430.4801535311658Q1506.9998126210799 431.50665312136914 1509.2712159696152 432.9262802142036Q1511.5644597349633 434.345907307038 1512.9840868277975 435.7655343998725L1512.9840868277975 435.7655343998725Q1501.1902617488654 447.8651253141844 1491.7552016857194 460.2049608134376Q1482.3201416225738 472.5447963126907 1476.8163565857385 483.39948346867095L1476.8163565857385 483.39948346867095Q1473.8242194823802 489.38375767538844 1471.378092799342 494.55993646003094Q1468.9538065331171 499.7579556614862 1466.9008073527107 504.8686131956902Q1464.8478081723038 509.97927072989415 1463.2097769113411 515.089928264098Q1461.5499052335654 520.2005857983021 1460.1302781407308 525.857253752827L1460.1302781407308 525.857253752827Q1490.3355745928852 487.3307584949817 1504.9468134406734 487.3307584949817L1504.9468134406734 487.3307584949817Q1509.0528118014868 487.3307584949817 1513.7703418330598 490.01712976296074Q1518.4878718646328 492.6816606141269 1522.0915406387508 497.2463077280099L1522.0915406387508 497.2463077280099Q1517.2211276894882 502.5972098471551 1512.023108488033 510.132153647584Q1506.8469297033903 517.6889378648258 1502.5225271744484 525.311243332506Q1498.1981246455066 532.9335488001864 1495.446232127089 539.4638334272247Q1492.6943396086717 545.9941180542631 1492.6943396086717 549.1391380753117L1492.6943396086717 549.1391380753117Q1492.6943396086717 550.711648085836 1493.1529883617413 551.257658506157Q1493.6334775316236 551.8036689264779 1495.2059875421478 551.8036689264779L1495.2059875421478 551.8036689264779Q1497.5647525579343 551.8036689264779 1498.984379650769 551.1702968389056Q1500.404006743603 550.5587651681462 1500.7097725789827 550.5587651681462L1500.7097725789827 550.5587651681462Q1501.496027584245 551.8036689264779 1501.648910501935 552.2841580963603Q1501.8017934196246 552.7428068494299 1501.8017934196246 553.0704131016225L1501.8017934196246 553.0704131016225Q1501.8017934196246 553.7037851891948 1499.9235175737208 554.883167697088Q1498.0452417278166 556.0625502049812 1495.446232127089 557.2419327128745Q1492.8472225263613 558.4213152207676 1490.3355745928852 559.3604531437197Q1487.8239266594087 560.2995910666716 1486.557182484264 560.2995910666716L1486.557182484264 560.2995910666716Q1484.98467247374 560.2995910666716 1483.4121624632157 559.4259743941582Q1481.839652452691 558.5741981384575 1480.660269944798 557.154571045623Q1479.480887436905 555.7349439527886 1478.7819940988943 554.0095510245744Q1478.0612603440704 552.2841580963603 1478.0612603440704 550.3840418336434L1478.0612603440704 550.3840418336434Q1478.0612603440704 548.025276817857 1479.3935257696535 543.3951084535355Q1480.7476316120496 538.764940089214 1483.1063966278357 532.5404212975552Q1485.4651616436222 526.3377429227094 1488.763064582361 518.9338416231575Q1492.0609675210994 511.55178074041845 1495.83935962972 503.8421136054868L1495.83935962972 503.8421136054868Q1495.83935962972 503.2087415179145 1495.2059875421478 503.2087415179145L1495.2059875421478 503.2087415179145Q1494.7254983722655 503.2087415179145 1492.7598608591102 504.4754856930591Q1490.7942233459548 505.7422298682037 1489.0688304177406 506.9871336265354L1489.0688304177406 506.9871336265354Q1483.4121624632157 511.24601490503875 1477.6681328414393 517.4486932798845Q1471.9241032196633 523.6513716547304 1466.5076798500795 531.0552729542824Q1461.0912564804958 538.4373338370214 1456.2863647816716 546.693011392274Q1451.481473082847 554.9486889475265 1448.0306872264186 563.2917281700304L1448.0306872264186 563.2917281700304Q1447.5501980565364 564.3837490106723 1446.6110601335845 565.3228869336243Q1445.6719222106326 566.2838652733892 1445.0385501230603 566.2838652733892L1445.0385501230603 566.2838652733892Q1444.5799013699907 566.2838652733892 1443.7062846974773 565.1700040159344Q1442.8326680249634 564.0779831752925 1442.1337746869526 562.418111497517Q1441.4348813489419 560.7800802365541 1440.8015092613696 559.0328468915271Q1440.1681371737973 557.3074539633129 1440.1681371737973 556.0625502049812ZM1596.327117385585 508.8872498892523L1596.327117385585 508.8872498892523Q1606.0679432841107 494.40705354234103 1615.5903650145078 482.22010096077776Q1625.0909463280923 470.0331483792144 1633.739751385976 461.23146040364094Q1642.3885564438592 452.42977242806745 1649.6177344089087 447.55935947880465Q1656.868752790771 442.6671061127291 1662.1978144931031 442.6671061127291L1662.1978144931031 442.6671061127291Q1664.2508136735096 442.6671061127291 1666.6969403565477 444.23961612325337Q1669.1212266227726 445.81212613377767 1671.239747053618 448.34561448406686Q1673.380107901276 450.85726241754315 1674.7778945772975 453.7620378536505Q1676.1975216701321 456.6668132897579 1676.1975216701321 459.35318455773694L1676.1975216701321 459.35318455773694Q1666.4566957716065 462.4982045787855 1657.087156958899 467.60886211298947Q1647.7394585630045 472.71951964719347 1639.1780151723724 479.4026871919217Q1630.5947313649272 486.08585473665 1622.819542979557 494.2541706246512Q1615.022514177374 502.4224865126524 1608.7324741352768 511.7046636581083L1608.7324741352768 511.7046636581083Q1611.265962485566 518.1475866178954 1614.9569929269355 525.4641262501959Q1618.648023368305 532.7806658824965 1623.0597875644985 539.6167163449146Q1627.4497113438788 546.4527668073328 1632.494847627644 552.2841580963603Q1637.518143494597 558.0937089685751 1642.7161626960524 561.5663352418162L1642.7161626960524 561.5663352418162Q1641.92990769079 563.2917281700304 1640.0297914280732 564.8642381805547Q1638.151515582169 566.436748191079 1635.9456334840725 567.769013616662Q1633.739751385976 569.1012790422451 1631.315465119751 569.8875340475072Q1628.869338436713 570.6737890527695 1626.8163392563065 570.6737890527695L1626.8163392563065 570.6737890527695Q1622.7321813123058 570.6737890527695 1619.2813954558774 566.82987569371Q1615.8087691826363 562.9641219178378 1612.2706216589568 555.1889335324677Q1608.7324741352768 547.4137451470976 1604.8885607762177 535.8383242362937Q1601.044647417158 524.2847437423027 1596.327117385585 508.8872498892523ZM1572.5647438932183 571.4600440580316L1572.5647438932183 571.4600440580316Q1566.6023101033134 570.0404169651972 1562.6710350770027 566.5022694415175Q1558.739760050692 562.9641219178378 1555.4418571119536 557.6350602155055L1555.4418571119536 557.6350602155055Q1556.839643787975 554.6429231121467 1558.8052813011304 549.772510162884Q1560.7709188142858 544.8802567968085 1563.610172999955 537.7384404990106Q1566.4494271856238 530.5747837843999 1570.3807022119345 520.5937133009331Q1574.3119772382452 510.61264281746645 1579.4881560228878 497.2463077280099L1579.4881560228878 497.2463077280099Q1582.7860589616262 488.75038558781614 1584.9264198092842 482.94083471560134Q1587.0449402401296 477.10944342657376 1588.5300885834022 471.5401371393002Q1590.0370773434884 465.94899043521383 1591.4348640195099 459.1784612232342Q1592.854491112344 452.42977242806745 1594.754607375061 442.05557444196967L1594.754607375061 442.05557444196967Q1601.3504132525381 443.30047820030137 1606.7668366221214 447.8651253141844Q1612.2051004085183 452.42977242806745 1616.136375434829 458.8726953878545L1616.136375434829 458.8726953878545Q1614.4109825066148 461.0785774859511 1612.1177387412667 465.5558629325828Q1609.8463353927318 470.0331483792144 1607.007081207063 476.3231884213116Q1604.1896674382065 482.6132284634088 1600.7170411649658 490.32289559834044Q1597.2662553085374 498.0325627332721 1593.4878631999163 506.6813677911557L1593.4878631999163 506.6813677911557Q1584.9919410597226 525.5514879174473 1580.12152811046 541.1892263554389Q1575.251115161197 556.8488052102434 1572.5647438932183 571.4600440580316ZM1708.28109396819 495.1933085476032L1708.28109396819 495.1933085476032Q1709.8536039787145 495.1933085476032 1711.97212440956 495.73931896792413Q1714.0906448404048 496.3071698050579 1715.8378781854321 497.1589460607586Q1717.563271113646 498.0325627332721 1718.7426536215394 498.9717006562241Q1719.9220361294324 499.9108385791761 1719.9220361294324 500.6970935844382L1719.9220361294324 500.6970935844382Q1716.777016108384 507.314739878728 1714.0906448404048 513.9979074234562Q1711.4261139892387 520.6810749681845 1709.547838143335 526.796391675779Q1707.6477218806176 532.9335488001864 1706.6212222904146 538.2844509193314Q1705.6165631170238 543.6353530384768 1705.6165631170238 547.5666280647874L1705.6165631170238 547.5666280647874Q1705.6165631170238 551.9565518441677 1706.5557010399762 554.883167697088Q1707.494838962928 557.7879431331953 1709.7007210610245 559.0328468915271L1709.7007210610245 559.0328468915271Q1707.8006047983076 560.2995910666716 1704.830308111762 561.0858460719338Q1701.8381710084032 561.872101077196 1699.4794059926166 561.872101077196L1699.4794059926166 561.872101077196Q1690.983483852423 561.872101077196 1690.983483852423 550.2311589159536L1690.983483852423 550.2311589159536Q1690.983483852423 541.2765880226902 1696.9677580591401 525.7043708351371L1696.9677580591401 525.7043708351371Q1693.8227380380918 532.9335488001864 1689.7167396772784 539.3109505095349Q1685.6325817332777 545.6665118020705 1681.3955408715874 550.5587651681462Q1677.136659593084 555.4291781174089 1672.8122570641422 558.4868364712062Q1668.4878545352003 561.5663352418162 1664.8841857610819 562.1778669125757L1664.8841857610819 562.1778669125757Q1659.0527944720543 561.872101077196 1655.4491256979363 556.6085606253022Q1651.8236165070052 551.3450201734083 1651.8236165070052 543.1548638685942L1651.8236165070052 543.1548638685942Q1651.8236165070052 534.3531758930208 1655.6020086156263 524.6123499944953Q1659.380400724247 514.8496836791569 1665.277313263713 506.52848487346586Q1671.1742258031795 498.1854456509619 1678.097637932849 492.59429894687554Q1684.9992096457054 487.024992659602 1691.4639730223053 486.69738640740945L1691.4639730223053 486.69738640740945Q1693.0364830328294 487.17787557729184 1695.0021205459852 488.5975026701263Q1696.9677580591401 490.01712976296074 1698.7586722377928 491.89540560886473Q1700.5714268332586 493.77368145476873 1701.8381710084032 495.73931896792413Q1703.0830747667346 497.70495648107953 1703.2577981012373 499.1245835739139L1703.2577981012373 499.1245835739139Q1696.9677580591401 500.0637214968659 1690.2845905144122 505.26174069832126Q1683.6014229696839 510.4597598997766 1678.163159183287 517.7544591152644Q1672.7467358137037 525.0709987475649 1669.2741095404622 533.4140379700688Q1665.8233236840342 541.7352367757599 1665.8233236840342 548.9862551576218L1665.8233236840342 548.9862551576218Q1665.8233236840342 551.9565518441677 1668.0292057821307 552.7428068494299L1668.0292057821307 552.7428068494299Q1672.5938528960137 551.8036689264779 1678.5562866859182 544.9676184640598Q1684.5405608926358 538.1315680016417 1693.0364830328294 523.8260949892331L1693.0364830328294 523.8260949892331Q1694.608993043354 520.9868408035643 1696.5746305565094 517.5360549471359Q1698.5402680696648 514.0634286738948 1700.5714268332586 510.2850365652739Q1702.624426013665 506.52848487346586 1704.5900635268204 502.6627310975936Q1706.5557010399762 498.8188177385342 1708.28109396819 495.1933085476032ZM1724.1590769911231 555.5820610350988L1724.1590769911231 555.5820610350988Q1724.945331996385 551.0174139212157 1726.9109695095403 543.5479913712254Q1728.8766070226957 536.078568821235 1731.562978290675 527.6700083482925Q1734.227509141841 519.2614478753501 1737.2196462451998 510.7655257351563Q1740.2117833485586 502.2696035949625 1743.0291971174147 495.5209147997958L1743.0291971174147 495.5209147997958Q1745.0821962978212 490.62866143372014 1746.6547063083453 487.87676891530265Q1748.22721631887 485.1248763968851 1750.1054921647738 483.2466005509811L1750.1054921647738 483.2466005509811Q1752.3113742628702 483.5523663863608 1754.6701392786572 484.33862139162295Q1757.0289042944432 485.1248763968851 1759.2347863925402 486.23873765433984Q1761.4406684906367 487.3307584949817 1763.1660614188509 488.51014100287495Q1764.891454347065 489.68952351076814 1765.830592270017 490.8033847682229L1765.830592270017 490.8033847682229Q1761.5935514083262 495.8266806351755 1758.3611697200263 502.2696035949625Q1755.1506284485395 508.7125265547496 1751.830885092988 518.7809587054676L1751.830885092988 518.7809587054676Q1760.326807233182 511.24601490503875 1766.8570918602204 504.32260277536926Q1773.3873764872587 497.3991906456998 1779.0440444417836 488.903268505506L1779.0440444417836 488.903268505506Q1779.9831823647355 488.11701350024384 1782.341947380522 488.11701350024384L1782.341947380522 488.11701350024384Q1784.5478294786185 488.11701350024384 1786.600828659025 488.8377472550675Q1788.6319874226192 489.5366405930783 1789.418242427881 490.8033847682229L1789.418242427881 490.8033847682229Q1786.600828659025 498.3383285686518 1786.600828659025 505.7422298682037L1786.600828659025 505.7422298682037Q1786.600828659025 512.6438015810603 1788.6319874226192 516.1164278543015L1788.6319874226192 516.1164278543015Q1788.4791045049292 517.0555657772535 1786.5134669917738 519.7200966284197Q1784.5478294786185 522.4064678963987 1782.189064462832 524.7652329121852L1782.189064462832 524.7652329121852Q1777.9520236011417 522.5593508140885 1774.6322802455902 518.7154374550291Q1771.3343773068518 514.8496836791569 1769.7618672963276 510.2850365652739L1769.7618672963276 510.2850365652739Q1762.3798064135885 515.4830557667292 1757.1817872121333 520.4408303832433Q1752.0056084274906 525.3986049997575 1748.2927375693084 531.4484004569134Q1744.6017071279389 537.4981959140694 1742.0026975272112 545.3607459666908Q1739.4255283432963 553.2232960193123 1737.0667633275102 564.0779831752925L1737.0667633275102 564.0779831752925Q1735.6471362346756 563.9251002576027 1733.6814987215203 563.0514835850892Q1731.715861208365 562.1778669125757 1729.7502236952096 560.9329631542439Q1727.7845861820542 559.6662189790994 1726.2120761715296 558.2465918862649Q1724.6395661610054 556.8488052102434 1724.1590769911231 555.5820610350988ZM1816.7842846943668 482.46034554571895L1816.7842846943668 482.46034554571895Q1820.868442638367 483.72708972086355 1824.493951829298 488.05149224980534Q1828.0976206034165 492.3758947787472 1829.8448539484434 497.5520735633896L1829.8448539484434 497.5520735633896Q1828.0976206034165 501.81095484189296 1824.493951829298 507.77338863179756Q1820.868442638367 513.757662838515 1817.264773864249 519.9603412133608Q1813.639264673318 526.1848600050196 1810.7344892372107 531.7541662922931Q1807.8297138011035 537.3453129963796 1807.3492246312207 540.9489817704977L1807.3492246312207 540.9489817704977Q1809.8608725646973 538.2844509193314 1812.9403713353072 534.7463033956518Q1815.9980296891044 531.2081558719722 1818.9028051252117 527.6700083482925Q1821.8075805613194 524.1318608246129 1824.3410689116085 521.2270853885054Q1826.8527168450846 518.3223099523981 1828.2723439379192 516.9026828595636L1828.2723439379192 516.9026828595636Q1831.242640624465 513.757662838515 1835.3486389852787 509.58614322726305Q1839.432796929279 505.4146236160111 1843.9100823759109 501.72359317464156Q1848.3873678225423 498.0325627332721 1852.9520149364253 495.4335531325444Q1857.5166620503087 492.83454353181673 1861.2950541589294 492.83454353181673L1861.2950541589294 492.83454353181673Q1865.37921210293 492.83454353181673 1868.1311046213473 495.5864360502343Q1870.8829971397654 498.3383285686518 1872.4555071502891 501.3304656720105L1872.4555071502891 501.3304656720105Q1872.4555071502891 501.6362315073902 1871.276124642396 502.20408234452407Q1870.096742134503 502.75009276484496 1867.8908600364061 505.26174069832126L1867.8908600364061 505.26174069832126Q1865.6849779383097 508.10099488399015 1862.933085419892 513.0369290836913Q1860.1811929014748 517.9947037002055 1857.5821833007471 523.7387333219817Q1855.0050141168322 529.482762943758 1853.2577807718053 535.4451967336627Q1851.532387843591 541.42947094038 1851.532387843591 546.2998838896428L1851.532387843591 546.2998838896428Q1851.532387843591 550.2311589159536 1852.5588874337946 551.3450201734083Q1853.5853870239976 552.4370410140502 1855.4636628699018 552.4370410140502L1855.4636628699018 552.4370410140502Q1857.189055798116 552.4370410140502 1859.0891720608329 551.650786008788Q1860.9674479067367 550.8645310035258 1862.0813091641917 550.8645310035258L1862.0813091641917 550.8645310035258Q1862.6928408349509 551.1702968389056 1863.085968337582 552.196796429109Q1863.4790958402132 553.2232960193123 1863.4790958402132 554.0095510245744L1863.4790958402132 554.0095510245744Q1862.2341920818812 555.1015718652163 1860.508799153667 556.2154331226711Q1858.7615658086402 557.3074539633129 1856.8832899627364 558.2465918862649Q1855.0050141168322 559.2075702260298 1853.1922595213669 559.8191018967892Q1851.379504925901 560.4524739843615 1849.959877833067 560.4524739843615L1849.959877833067 560.4524739843615Q1845.3952307191835 560.4524739843615 1842.4904552830762 559.1202085587785Q1839.585679846969 557.7879431331953 1837.9258081691933 555.5820610350988Q1836.2877769082306 553.3761789370022 1835.6544048206583 550.318520583205Q1835.021032733086 547.2390218125948 1835.021032733086 543.7882359561665L1835.021032733086 543.7882359561665Q1835.021032733086 541.9099601102625 1835.3486389852787 539.551195094476Q1835.6544048206583 537.1924300786897 1836.5935427436102 533.9600483903897Q1837.532680666562 530.7276667020898 1839.2799140115894 526.250381255458Q1841.0053069398036 521.7730958088264 1843.6698377909697 515.4830557667292L1843.6698377909697 515.4830557667292Q1843.3640719555897 515.4830557667292 1839.432796929279 517.6889378648258Q1835.5015219029683 519.8948199629224 1830.9368747890853 524.4376266599926L1830.9368747890853 524.4376266599926Q1823.5548139063462 531.5139217073519 1817.6579013668802 538.4373338370214Q1811.7609888274142 545.3607459666908 1805.6238317030065 553.8566681068846L1805.6238317030065 553.8566681068846Q1802.1512054297655 558.7270810561474 1799.574036245851 562.1123456621372Q1796.9750266451233 565.497610268127 1795.0749103824064 566.5896311087688L1795.0749103824064 566.5896311087688Q1791.7770074436676 564.7113552628648 1790.2044974331434 561.3260906568751Q1788.6319874226192 557.9408260508852 1787.8457324173569 554.3153168599542L1787.8457324173569 554.3153168599542Q1787.8457324173569 551.3450201734083 1788.7193490898703 546.7803730595253Q1789.571125345571 542.2157259456422 1791.0781141056568 536.6245792415559Q1792.56326244893 531.0552729542824 1794.7691445470264 524.918115829875Q1796.9750266451233 518.7809587054676 1799.639557496289 512.6438015810603L1799.639557496289 512.6438015810603Q1805.6238317030065 498.8188177385342 1810.5816063195207 490.95626768591274Q1815.5175405192222 483.09371763329125 1816.7842846943668 482.46034554571895ZM1930.4854946219984 495.1933085476032L1930.4854946219984 495.1933085476032Q1932.058004632523 495.1933085476032 1934.176525063368 495.73931896792413Q1936.2950454942134 496.3071698050579 1938.020438422427 497.1589460607586Q1939.7458313506418 498.0325627332721 1940.9252138585348 498.9717006562241Q1942.1045963664278 499.9108385791761 1942.1045963664278 500.6970935844382L1942.1045963664278 500.6970935844382Q1938.9595763453794 507.314739878728 1936.2950454942134 513.9979074234562Q1933.6305146430468 520.6810749681845 1931.73039838033 526.796391675779Q1929.8521225344261 532.9335488001864 1928.8256229442227 538.2844509193314Q1927.7991233540197 543.6353530384768 1927.7991233540197 547.5666280647874L1927.7991233540197 547.5666280647874Q1927.7991233540197 551.9565518441677 1928.7382612769711 554.883167697088Q1929.6992396167361 557.7879431331953 1931.88328129802 559.0328468915271L1931.88328129802 559.0328468915271Q1930.0050054521162 560.2995910666716 1927.0128683487574 561.0858460719338Q1924.0207312453986 561.872101077196 1921.661966229612 561.872101077196L1921.661966229612 561.872101077196Q1913.1878845062315 561.872101077196 1913.1878845062315 550.2311589159536L1913.1878845062315 550.2311589159536Q1913.1878845062315 541.2765880226902 1919.150318296136 525.7043708351371L1919.150318296136 525.7043708351371Q1916.0052982750872 532.9335488001864 1911.9211403310865 539.3109505095349Q1907.8369823870862 545.6665118020705 1903.5781011085828 550.5587651681462Q1899.3410602468925 555.4291781174089 1895.0166577179502 558.4868364712062Q1890.6922551890088 561.5663352418162 1887.0667459980777 562.1778669125757L1887.0667459980777 562.1778669125757Q1881.2571951258628 561.872101077196 1877.6316859349317 556.6085606253022Q1874.0280171608138 551.3450201734083 1874.0280171608138 543.1548638685942L1874.0280171608138 543.1548638685942Q1874.0280171608138 534.3531758930208 1877.8064092694344 524.6123499944953Q1881.5629609612424 514.8496836791569 1887.4598735007085 506.52848487346586Q1893.356786040175 498.1854456509619 1900.280198169844 492.59429894687554Q1907.203610299514 487.024992659602 1913.6465332593007 486.69738640740945L1913.6465332593007 486.69738640740945Q1915.2190432698249 487.17787557729184 1917.1846807829802 488.5975026701263Q1919.150318296136 490.01712976296074 1920.9630728916013 491.89540560886473Q1922.775827487067 493.77368145476873 1924.0207312453986 495.73931896792413Q1925.2874754205432 497.70495648107953 1925.4403583382327 499.1245835739139L1925.4403583382327 499.1245835739139Q1919.150318296136 500.0637214968659 1912.4671507514076 505.26174069832126Q1905.7839832066793 510.4597598997766 1900.3675598370955 517.7544591152644Q1894.9292960506991 525.0709987475649 1891.4785101942707 533.4140379700688Q1888.0277243378423 541.7352367757599 1888.0277243378423 548.9862551576218L1888.0277243378423 548.9862551576218Q1888.0277243378423 551.9565518441677 1890.2117660191261 552.7428068494299L1890.2117660191261 552.7428068494299Q1894.776413133009 551.8036689264779 1900.7606873397267 544.9676184640598Q1906.7231211296312 538.1315680016417 1915.2190432698249 523.8260949892331L1915.2190432698249 523.8260949892331Q1916.7915532803495 520.9868408035643 1918.7571907935048 517.5360549471359Q1920.7228283066602 514.0634286738948 1922.775827487067 510.2850365652739Q1924.8069862506609 506.52848487346586 1926.7726237638162 502.6627310975936Q1928.7382612769711 498.8188177385342 1930.4854946219984 495.1933085476032ZM1965.6922465242924 498.4912114863416L1956.737675631029 498.4912114863416Q1955.9514206257668 497.5520735633896 1955.318048538195 494.4944152095924Q1954.6846764506226 491.4149164389823 1954.6846764506226 489.2308747576986L1954.6846764506226 489.2308747576986Q1958.790674811436 489.5366405930783 1962.547226503244 489.7768851780195Q1966.3256186118647 490.01712976296074 1969.4706386329135 490.1700126806506L1969.4706386329135 490.1700126806506Q1971.8294036486996 485.4524826490777 1974.5812961671172 480.8004738679433Q1977.3331886855344 476.17030550362176 1979.9321982862625 472.32639214456236Q1982.5312078869902 468.4606383686901 1984.8026112355255 465.796107517524Q1987.0958550008731 463.10973624954494 1988.340758759205 462.3234812442828L1988.340758759205 462.3234812442828Q1989.9132687697293 462.3234812442828 1992.3593954527673 462.8913320814166Q1994.7836817189918 463.43734250173753 1997.3171700692815 464.2891187574382Q1999.8288180027575 465.1627354299517 2001.8599767663513 466.1018733529037Q2003.9129759467583 467.0410112758557 2004.6992309520201 468.0019896156206L2004.6992309520201 468.0019896156206Q1999.981700920447 473.96442340552517 1996.5964363144576 479.07508093972916Q1993.2111717084676 484.1857384739331 1989.279896682157 490.8033847682229L1989.279896682157 490.8033847682229Q1992.4249167032058 490.8033847682229 1995.6572983915057 490.62866143372014Q1998.8896800798052 490.4757785160303 2002.187583018544 490.1700126806506L2002.187583018544 490.1700126806506Q2002.973838023806 490.95626768591274 2003.4324867768755 492.13565019380593Q2003.9129759467583 493.3150327016992 2003.9129759467583 494.55993646003094L2003.9129759467583 494.55993646003094Q1996.2033088118264 497.3991906456998 1985.1957387381563 497.70495648107953L1985.1957387381563 497.70495648107953Q1981.2644637118456 505.26174069832126 1978.2068053580483 512.7311632483116Q1975.127306587438 520.2005857983021 1973.008786156593 527.1239979279716Q1970.8902657257481 534.0474100576411 1969.7108832178546 540.1627267652356Q1968.5315007099612 546.2998838896428 1968.5315007099612 551.1702968389056L1968.5315007099612 551.1702968389056Q1968.5315007099612 558.0937089685751 1973.7295199114164 558.8799639738372L1973.7295199114164 558.8799639738372Q1978.4470499429895 558.2465918862649 1982.6840908046802 556.5211989580508Q1986.9211316663705 554.7958060298366 1990.240875021922 552.1312751786704L1990.240875021922 552.1312751786704Q1991.1800129448739 553.529061854692 1991.3328958625639 554.4900401944569L1991.3328958625639 554.4900401944569Q1990.3937579396115 555.8878268704785 1988.1005141742635 557.7879431331953Q1985.829110825729 559.6662189790994 1983.1645799745625 561.4789735745649Q1980.4782087065832 563.2917281700304 1977.9665607731072 564.5366319283621Q1975.454912839631 565.8033761035067 1974.188168664486 565.9562590211966L1974.188168664486 565.9562590211966Q1970.2568936381758 565.8033761035067 1966.3256186118647 564.2308660929824Q1962.394343585554 562.6583560824581 1959.1838023140667 560.2995910666716Q1955.9514206257668 557.9408260508852 1953.8984214453603 555.0360506147779Q1951.8672626817665 552.1312751786704 1951.8672626817665 549.2920209930016L1951.8672626817665 549.2920209930016Q1951.8672626817665 545.5136288843808 1952.8937622719695 539.7695992626045Q1953.8984214453603 534.0474100576411 1955.7985377080772 527.2768808456615Q1957.676813553981 520.5063516336818 1960.1884614874575 513.1242907509427Q1962.7219498377467 505.7422298682037 1965.6922465242924 498.4912114863416L1965.6922465242924 498.4912114863416ZM2057.0725504692045 495.1933085476032L2057.0725504692045 495.1933085476032Q2058.6450604797287 495.1933085476032 2060.763580910574 495.73931896792413Q2062.8821013414195 496.3071698050579 2064.607494269633 497.1589460607586Q2066.3328871978474 498.0325627332721 2067.512269705741 498.9717006562241Q2068.691652213634 499.9108385791761 2068.691652213634 500.6970935844382L2068.691652213634 500.6970935844382Q2065.5466321925855 507.314739878728 2062.8821013414195 513.9979074234562Q2060.217570490253 520.6810749681845 2058.317454227536 526.796391675779Q2056.4391783816322 532.9335488001864 2055.412678791429 538.2844509193314Q2054.3861792012253 543.6353530384768 2054.3861792012253 547.5666280647874L2054.3861792012253 547.5666280647874Q2054.3861792012253 551.9565518441677 2055.325317124177 554.883167697088Q2056.286295463942 557.7879431331953 2058.470337145226 559.0328468915271L2058.470337145226 559.0328468915271Q2056.592061299322 560.2995910666716 2053.5999241959635 561.0858460719338Q2050.6077870926047 561.872101077196 2048.249022076818 561.872101077196L2048.249022076818 561.872101077196Q2039.7749403534372 561.872101077196 2039.7749403534372 550.2311589159536L2039.7749403534372 550.2311589159536Q2039.7749403534372 541.2765880226902 2045.7373741433416 525.7043708351371L2045.7373741433416 525.7043708351371Q2042.5923541222933 532.9335488001864 2038.5081961782926 539.3109505095349Q2034.4240382342923 545.6665118020705 2030.1651569557885 550.5587651681462Q2025.9281160940982 555.4291781174089 2021.6037135651563 558.4868364712062Q2017.2793110362145 561.5663352418162 2013.6538018452839 562.1778669125757L2013.6538018452839 562.1778669125757Q2007.8442509730685 561.872101077196 2004.2187417821378 556.6085606253022Q2000.6150730080194 551.3450201734083 2000.6150730080194 543.1548638685942L2000.6150730080194 543.1548638685942Q2000.6150730080194 534.3531758930208 2004.3934651166405 524.6123499944953Q2008.1500168084485 514.8496836791569 2014.0469293479146 506.52848487346586Q2019.943841887381 498.1854456509619 2026.86725401705 492.59429894687554Q2033.7906661467196 487.024992659602 2040.2335891065068 486.69738640740945L2040.2335891065068 486.69738640740945Q2041.806099117031 487.17787557729184 2043.7717366301863 488.5975026701263Q2045.7373741433416 490.01712976296074 2047.5501287388074 491.89540560886473Q2049.3628833342727 493.77368145476873 2050.6077870926047 495.73931896792413Q2051.8745312677493 497.70495648107953 2052.027414185439 499.1245835739139L2052.027414185439 499.1245835739139Q2045.7373741433416 500.0637214968659 2039.0542065986137 505.26174069832126Q2032.3710390538854 510.4597598997766 2026.9546156843016 517.7544591152644Q2021.5163518979048 525.0709987475649 2018.0655660414768 533.4140379700688Q2014.6147801850484 541.7352367757599 2014.6147801850484 548.9862551576218L2014.6147801850484 548.9862551576218Q2014.6147801850484 551.9565518441677 2016.7988218663322 552.7428068494299L2016.7988218663322 552.7428068494299Q2021.3634689802152 551.8036689264779 2027.3477431869328 544.9676184640598Q2033.3101769768373 538.1315680016417 2041.806099117031 523.8260949892331L2041.806099117031 523.8260949892331Q2043.3786091275551 520.9868408035643 2045.344246640711 517.5360549471359Q2047.3098841538663 514.0634286738948 2049.3628833342727 510.2850365652739Q2051.3940420978665 506.52848487346586 2053.359679611022 502.6627310975936Q2055.325317124177 498.8188177385342 2057.0725504692045 495.1933085476032ZM2077.034691436138 543.9411188738565L2077.034691436138 543.9411188738565Q2077.034691436138 538.2844509193314 2079.9394668722452 528.2160187686134Q2082.8442423083525 518.1475866178954 2087.5617723399255 506.20087862127326Q2092.2793023714985 494.2541706246512 2098.2635765782156 481.52120762276695Q2104.2478507849332 468.7882446208827 2110.2976462420893 457.78067454721264Q2116.3474416992453 446.77310447354256 2121.938588403332 438.7358310864184Q2127.5078946906056 430.720398116107 2131.4391697169162 427.902984347251L2131.4391697169162 427.902984347251Q2133.6450518150127 428.05586726494084 2136.2440614157404 429.781260193155Q2138.843071016468 431.50665312136914 2141.027112697752 433.95277980440693Q2143.2329947958483 436.3770660706319 2144.739983555934 439.0634373386109Q2146.225131899207 441.7279681897771 2146.225131899207 443.93385028787367L2146.225131899207 443.93385028787367Q2139.1488368518476 449.59051824239856 2131.832297219547 458.4795678852234Q2124.5157575872468 467.3686175280483 2117.9199517097695 477.98306009908725Q2111.3241458322927 488.5975026701263 2105.7329991282063 500.456848999497Q2100.14185242412 512.3380357456806 2096.385300732312 523.8260949892331L2096.385300732312 523.8260949892331Q2101.4085965992645 515.1772899313495 2106.9123816360993 508.10099488399015Q2112.4161666729347 501.0246998366308 2117.9199517097695 495.97956355286533Q2123.423736746605 490.95626768591274 2128.6872771984986 488.2043751674952Q2133.9508176503923 485.4524826490777 2138.6683476819653 485.29959973138784L2138.6683476819653 485.29959973138784Q2145.591759811635 490.32289559834044 2145.591759811635 498.66593482084437L2145.591759811635 498.66593482084437Q2145.591759811635 503.68923068779696 2143.5606010480406 508.79988822200096Q2141.507601867634 513.9105457562049 2138.122337261644 518.2349482851467Q2134.7370726556546 522.5593508140885 2130.412670126713 525.6170091678857Q2126.088267597771 528.6965079384959 2121.370737566198 529.6356458614479L2121.370737566198 529.6356458614479Q2122.943247576722 535.1394308982829 2125.38937425976 540.7960988528077Q2127.835500942798 546.4527668073328 2131.1989251319746 551.8036689264779Q2134.5841897379646 557.154571045623 2138.9085922669065 561.7192181595061Q2143.2329947958483 566.2838652733892 2148.736779832683 569.4288852944378L2148.736779832683 569.4288852944378Q2147.950524827421 571.001395304962 2146.378014816897 572.5739053154864Q2144.8055048063725 574.1464153260106 2142.599622708276 575.3257978339038Q2140.415581026992 576.5051803417971 2137.8165714262645 577.2040736798078Q2135.217561825537 577.9029670178186 2132.705913892061 577.9029670178186L2132.705913892061 577.9029670178186Q2128.4470326135574 577.9029670178186 2124.756002172188 573.6659261561281Q2121.0649717308183 569.4288852944378 2118.0728346274595 561.3916119073135L2118.0728346274595 561.3916119073135Q2115.714069611673 554.9486889475265 2113.508187513576 545.9941180542631Q2111.3241458322927 537.017706744187 2109.576912487266 527.2768808456615L2109.576912487266 527.2768808456615Q2111.7827945853624 525.857253752827 2115.0806975241007 523.1053612344094Q2118.400440879652 520.353468715992 2122.0041096537702 516.7497999418738L2122.0041096537702 516.7497999418738Q2135.850933913109 503.3834648524172 2135.850933913109 493.6207985370789L2135.850933913109 493.6207985370789Q2135.850933913109 492.3758947787472 2134.125540984895 492.3758947787472L2134.125540984895 492.3758947787472Q2130.9805209638466 492.52877769643703 2126.7216396853432 495.34619146529303Q2122.4845988236525 498.1854456509619 2117.6797071248284 503.2087415179145Q2112.896655842817 508.25387780168 2107.938881226303 515.0025665968468Q2102.9811066097886 521.7730958088264 2098.4164594959057 529.6356458614479L2098.4164594959057 529.6356458614479Q2096.538183650002 532.7806658824965 2094.9656736394772 536.8648238264971Q2093.393163628953 540.9489817704977 2092.21378112106 545.2733842994395Q2091.0343986131666 549.5977868283813 2090.4010265255947 553.8566681068846Q2089.767654438022 558.0937089685751 2089.767654438022 561.7192181595061L2089.767654438022 561.7192181595061Q2089.767654438022 563.9251002576027 2090.2481436079047 565.3228869336243L2090.2481436079047 565.3228869336243Q2085.3777306586417 564.8642381805547 2084.263869401187 562.811239000148L2084.263869401187 562.811239000148Q2083.0189656428556 560.9329631542439 2082.1453489703417 559.7535806463508Q2081.2717322978283 558.5741981384575 2080.3325943748764 557.7879431331953L2080.3325943748764 557.7879431331953Q2078.9129672820422 556.6740818757406 2077.97382935909 553.0704131016225Q2077.034691436138 549.4449039106914 2077.034691436138 543.9411188738565ZM2208.4921602326067 495.1933085476032L2208.4921602326067 495.1933085476032Q2210.064670243131 495.1933085476032 2212.1831906739762 495.73931896792413Q2214.3235515216343 496.3071698050579 2216.0489444498485 497.1589460607586Q2217.7743373780627 498.0325627332721 2218.9537198859557 498.9717006562241Q2220.1331023938487 499.9108385791761 2220.1331023938487 500.6970935844382L2220.1331023938487 500.6970935844382Q2216.9880823728004 507.314739878728 2214.3235515216343 513.9979074234562Q2211.637180253655 520.6810749681845 2209.7589044077513 526.796391675779Q2207.8587881450344 532.9335488001864 2206.8541289716436 538.2844509193314Q2205.82762938144 543.6353530384768 2205.82762938144 547.5666280647874L2205.82762938144 547.5666280647874Q2205.82762938144 551.9565518441677 2206.7667673043925 554.883167697088Q2207.7059052273444 557.7879431331953 2209.911787325441 559.0328468915271L2209.911787325441 559.0328468915271Q2208.033511479537 560.2995910666716 2205.0413743761783 561.0858460719338Q2202.0492372728195 561.872101077196 2199.690472257033 561.872101077196L2199.690472257033 561.872101077196Q2191.1945501168393 561.872101077196 2191.1945501168393 550.2311589159536L2191.1945501168393 550.2311589159536Q2191.1945501168393 541.2765880226902 2197.178824323557 525.7043708351371L2197.178824323557 525.7043708351371Q2194.033804302508 532.9335488001864 2189.9496463585074 539.3109505095349Q2185.843647997694 545.6665118020705 2181.6066071360037 550.5587651681462Q2177.369566274313 555.4291781174089 2173.045163745371 558.4868364712062Q2168.7207612164298 561.5663352418162 2165.0952520254987 562.1778669125757L2165.0952520254987 562.1778669125757Q2159.2857011532838 561.872101077196 2155.660191962353 556.6085606253022Q2152.0346827714216 551.3450201734083 2152.0346827714216 543.1548638685942L2152.0346827714216 543.1548638685942Q2152.0346827714216 534.3531758930208 2155.8130748800427 524.6123499944953Q2159.5914669886633 514.8496836791569 2165.48837952813 506.52848487346586Q2171.385292067596 498.1854456509619 2178.3087041972653 492.59429894687554Q2185.232116326935 487.024992659602 2191.6750392867216 486.69738640740945L2191.6750392867216 486.69738640740945Q2193.2475492972458 487.17787557729184 2195.2131868104016 488.5975026701263Q2197.178824323557 490.01712976296074 2198.9915789190222 491.89540560886473Q2200.782493097675 493.77368145476873 2202.0492372728195 495.73931896792413Q2203.315981447964 497.70495648107953 2203.468864365654 499.1245835739139L2203.468864365654 499.1245835739139Q2197.178824323557 500.0637214968659 2190.4956567788286 505.26174069832126Q2183.8124892341 510.4597598997766 2178.374225447704 517.7544591152644Q2172.95780207812 525.0709987475649 2169.5070162216916 533.4140379700688Q2166.0343899484506 541.7352367757599 2166.0343899484506 548.9862551576218L2166.0343899484506 548.9862551576218Q2166.0343899484506 551.9565518441677 2168.240272046547 552.7428068494299L2168.240272046547 552.7428068494299Q2172.80491916043 551.8036689264779 2178.7673529503345 544.9676184640598Q2184.751627157052 538.1315680016417 2193.2475492972458 523.8260949892331L2193.2475492972458 523.8260949892331Q2194.8200593077704 520.9868408035643 2196.7856968209258 517.5360549471359Q2198.751334334081 514.0634286738948 2200.782493097675 510.2850365652739Q2202.835492278082 506.52848487346586 2204.801129791237 502.6627310975936Q2206.7667673043925 498.8188177385342 2208.4921602326067 495.1933085476032Z " fill="#c5fad5" transform="matrix(0.39807124633036167,0,0,0.39807124633036167,-8.771165460790991,99.80877087430255)"/></g></svg>